<?xml version="1.0" encoding="utf-8"?>
<!-- Generator: Adobe Illustrator 16.0.3, SVG Export Plug-In . SVG Version: 6.00 Build 0)  -->
<!DOCTYPE svg PUBLIC "-//W3C//DTD SVG 1.1//EN" "http://www.w3.org/Graphics/SVG/1.1/DTD/svg11.dtd">
<svg version="1.1" id="Capa_1" xmlns="http://www.w3.org/2000/svg" xmlns:xlink="http://www.w3.org/1999/xlink" x="0px" y="0px"
	 width="595.279px" height="841.891px" viewBox="0 0 595.279 841.891" enable-background="new 0 0 595.279 841.891"
	 xml:space="preserve">
<path fill="#E0E1DD" d="M297.64,172.912c-136.984,0-248.033,111.048-248.033,248.034c0,136.984,111.049,248.033,248.033,248.033
	c136.985,0,248.033-111.049,248.033-248.033C545.673,283.96,434.625,172.912,297.64,172.912z M389.586,477.819
	c9.853,9.517,10.125,25.219,0.608,35.071c-9.517,9.854-25.219,10.126-35.072,0.609c-0.206-0.199-0.409-0.402-0.608-0.609
	l-56.874-56.874l-56.874,56.874c-9.853,9.518-25.555,9.244-35.071-0.608c-9.284-9.612-9.284-24.852,0-34.463l56.874-56.874
	l-56.874-56.875c-9.517-9.853-9.243-25.555,0.609-35.072c9.612-9.283,24.851-9.283,34.462,0l56.874,56.874l56.874-56.874
	c9.854-9.517,25.556-9.244,35.072,0.609c9.283,9.612,9.283,24.851,0,34.463l-56.874,56.875L389.586,477.819z"/>
</svg>
